<svg xmlns="http://www.w3.org/2000/svg" width="4265.293" height="288" viewBox="0 0 4265.293 288">
  <g id="Group_2" data-name="Group 2" transform="translate(-9926.688 -355.098)">
    <path id="path6" d="M2443.052,1398.737H2378.23V1121.992h64.823Zm61.131-276.745h78.358l120.623,198.889-2.875-198.889h63.184v276.745h-71.8L2564.9,1189.443l2.876,209.293h-63.592Zm317.136,149.55q0-79.786,26.874-114.473t117.951-34.694l94.361-.383v48.183h-99.7q-38.971.764-57.229,15.8t-20.307,52.035l177.234-.383v47.793H2883.272v113.317h-61.953Zm333.549-52.807a139.1,139.1,0,0,0-4.1,21.006,181.619,181.619,0,0,0-1.237,21.007,159.314,159.314,0,0,0,1.441,21.4,197.989,197.989,0,0,0,3.9,20.617,80.54,80.54,0,0,0,14.976,30.836q10.463,13.109,29.335,19.276a88.073,88.073,0,0,0,14.766,3.468,105.726,105.726,0,0,0,31.184,0,88.085,88.085,0,0,0,14.766-3.468q18.869-6.172,29.539-19.276a74.695,74.695,0,0,0,14.773-30.836,198.052,198.052,0,0,0,3.9-20.617,159.392,159.392,0,0,0,1.435-21.4,156.57,156.57,0,0,0-1.435-21.007,198.05,198.05,0,0,0-3.9-20.617,76.274,76.274,0,0,0-14.773-31.028q-10.663-13.3-29.539-19.078a87.553,87.553,0,0,0-14.766-3.474,105.726,105.726,0,0,0-31.184,0,87.552,87.552,0,0,0-14.766,3.474q-18.879,6.164-29.131,19.27a87.259,87.259,0,0,0-15.181,30.836Zm-64-19.653q10.664-30.45,31.382-49.531t54.36-27.176q12.309-2.7,25.439-4.235a224.42,224.42,0,0,1,26.256-1.545,210.848,210.848,0,0,1,28.309,1.156,185.017,185.017,0,0,1,27.492,5.013q32.823,7.709,53.741,26.979t30.769,49.722a216.413,216.413,0,0,1,8.62,60.126,251.875,251.875,0,0,1-2.053,32.382,173.851,173.851,0,0,1-6.567,30.063q-9.84,31.222-31.177,50.3t-54.978,26.4a204.311,204.311,0,0,1-27.078,4.432q-13.944,1.348-28.308,1.348a211.867,211.867,0,0,1-25.433-1.54q-12.72-1.545-25.031-4.241-33.224-7.322-54.563-26.4t-31.178-50.3a195.979,195.979,0,0,1-6.363-29.3,225.916,225.916,0,0,1-2.257-31.992,253.417,253.417,0,0,1,2.053-32.184,146.9,146.9,0,0,1,6.567-29.1Zm392.211-28.524H3388.31v-48.183h254.367v48.183h-95.592v228.179h-64.006Zm310.983-.383q-34.056.386-50.872,17.149t-18.872,47.6l171.489-.383v48.177H3723.9a112.212,112.212,0,0,0,3.487,28.141,55.748,55.748,0,0,0,14.154,24.666,39.915,39.915,0,0,0,22.359,12.914,139.172,139.172,0,0,0,26.466,2.5h3.692l101.745-.389v48.182h-104.62a267.5,267.5,0,0,1-48.207-4.241q-23.173-4.241-43.693-19.659-24.616-18.886-34.461-46.056a177.635,177.635,0,0,1-10.667-55.694,116.386,116.386,0,0,1-.2-11.95q.2-5.786.612-11.567,4.514-65.517,37.955-96.359t100.31-30.836l102.975-.383v48.183Zm277.34-.773q-44.719.387-57.848,27.751t-14.358,63.595v12.531q0,6.361.408,12.908a124.277,124.277,0,0,0,5.331,26.4,59.218,59.218,0,0,0,13.542,22.935,41.86,41.86,0,0,0,22.768,12.914,139.147,139.147,0,0,0,26.465,2.5h3.692l101.745-.389v48.183H4068.526a267.494,267.494,0,0,1-48.207-4.241q-23.172-4.241-43.693-19.659-24.616-18.886-34.461-46.056a177.648,177.648,0,0,1-10.667-55.694,116.249,116.249,0,0,1-.2-11.95q.2-5.786.612-11.567,4.514-65.517,37.955-96.359t100.31-30.836l102.975-.383v47.41Zm209.233-47.41v112.161h113.647V1121.992h61.947v276.745h-61.947V1283.108H4280.635v115.629h-61.947V1121.992Z" transform="translate(9735.751 -761.421)" fill-rule="evenodd"/>
    <path id="path4" d="M1664.62,1064.1H1470.94v-288h180.925q4.419.4,8.826.4t8.826.4a251.26,251.26,0,0,1,67.912,11.227q31.625,10.032,41.433,44.125,8.332,30.887-4.656,51.945t-44.87,36.3q35.307,13.639,47.077,35.3t3.431,53.75q-8.829,32.89-39.96,43.52a211.838,211.838,0,0,1-66.445,11.029h-8.82Zm-10.3-50.943q21.572.805,35.056-6.615t13.488-26.674q0-19.657-13.488-26.873t-35.056-7.22l-109.346-.4v67.784ZM1544.979,827.839v66.584h108.363q21.083.4,34.814-6.615t13.73-26.273q.488-18.859-13.73-26.074t-34.814-7.22Zm370.2-51.742V892.821H2051V776.1h74.041v288H2051V943.76H1915.176v120.333h-74.034v-288Zm383.436,0h78.453l150.039,288h-82.375L2412.369,995.5H2259.385L2228,1064.093h-77.957Zm36.286,57.36-51.484,110.7H2388.34Zm344.7,110.7V893.223h175.044v170.871h-159.36a401.4,401.4,0,0,1-58.837-4.21,127.617,127.617,0,0,1-52.957-20.659q-29.416-19.657-41.185-47.933a163.769,163.769,0,0,1-12.748-57.96,106.157,106.157,0,0,1-.249-12.432q.249-6.018.739-12.035,5.387-68.19,45.356-100.275T2695.282,776.5l159.356-.4v49.738H2695.282q-52.46.4-67.912,30.284T2611.93,921.7v1.2q0,36.505,15.44,62.974t67.912,26.476l83.358-.4V944.162ZM2859.546,776.1h82.861L3029.2,886l88.261-109.9h85.807L3067.44,936.942v127.153H2993.4V936.941Zm460.9,0H3398.9l150.039,288h-82.375L3434.206,995.5H3281.219l-31.383,68.592h-77.957Zm36.287,57.36-51.484,110.7h104.927Z" transform="translate(8455.748 -421)" fill-rule="evenodd"/>
  </g>
</svg>
